<svg width="16" height="16" viewBox="0 0 16 16" xmlns="http://www.w3.org/2000/svg"><title>Icon/Collaboration</title><desc>Created with Sketch.</desc><g fill="none"><path d="M10.685 1.5h-6.667c-.932-.007-1.829.358-2.49 1.016-.661.657-1.031 1.552-1.029 2.484v7c-.005 1.924 1.548 3.49 3.472 3.5h7.056c1.924-.01 3.477-1.576 3.472-3.5v-5.245" id="Shape" stroke="#fff" stroke-linecap="round" stroke-linejoin="round"/><path d="M15.1.2l-7.779 9.745-3.057-3.157c-.166-.221-.479-.266-.7-.1-.221.166-.266.479-.1.7l3.386 4.412.06.07c.157.118.373.118.53 0l.06-.07 8.4-11c.08-.106.114-.239.095-.371-.019-.131-.089-.25-.195-.329-.221-.166-.534-.121-.7.1z" fill="#fff" fill-rule="nonzero"/></g></svg>