<?xml version="1.0" encoding="utf-8"?>
<!-- Generator: Adobe Illustrator 16.0.0, SVG Export Plug-In . SVG Version: 6.00 Build 0)  -->
<!DOCTYPE svg PUBLIC "-//W3C//DTD SVG 1.1//EN" "http://www.w3.org/Graphics/SVG/1.1/DTD/svg11.dtd">
<svg version="1.1" id="Ebene_1" xmlns="http://www.w3.org/2000/svg" xmlns:xlink="http://www.w3.org/1999/xlink" x="0px" y="0px"
	 width="16px" height="16px" viewBox="0 0 16 16" enable-background="new 0 0 16 16" xml:space="preserve">
<path fill="#FFFFFF" d="M2.3,2.3l1.1,1.1c2.5-2.5,6.7-2.5,9.2,0s2.5,6.7,0,9.2s-6.7,2.5-9.2,0C2.1,11.3,1.5,9.7,1.5,8H0
	c0,2,0.8,4.1,2.3,5.7c3.1,3.1,8.2,3.1,11.3,0s3.1-8.2,0-11.3C10.5-0.8,5.5-0.8,2.3,2.3"/>
<path fill="#FFFFFF" d="M4.4,4.4l1.1,1.1c1.4-1.4,3.7-1.4,5.1,0c1.4,1.4,1.4,3.7,0,5.1c-1.4,1.4-3.7,1.4-5.1,0l-1.1,1.1
	c2,2,5.2,2,7.2,0c2-2,2-5.2,0-7.2S6.4,2.4,4.4,4.4"/>
<path fill="#FFFFFF" d="M8.6,7.4C8.7,7.6,8.8,7.8,8.8,8h1.3c0-0.5-0.2-1.1-0.6-1.5c-0.8-0.8-2.1-0.8-3,0l0.9,0.9
	C7.7,7.1,8.3,7.1,8.6,7.4"/>
</svg>
